<svg version="1.1" viewBox="0.0 0.0 355 355" fill="none" stroke="none" stroke-linecap="square" stroke-miterlimit="10" xmlns:xlink="http://www.w3.org/1999/xlink" xmlns="http://www.w3.org/2000/svg"><clipPath id="p.0"><path d="m0 0l354.72702 0l0 353.98163l-354.72702 0l0 -353.98163z" clip-rule="nonzero"/></clipPath><g clip-path="url(#p.0)"><path fill="#000000" fill-opacity="0.0" d="m0 0l354.72702 0l0 353.98163l-354.72702 0z" fill-rule="evenodd"/><path fill="#000000" d="m4.3622046 118.02887l0 0c0 -64.06503 51.934967 -116.0 116.0 -116.0l0 0c30.765114 0 60.270164 12.221394 82.02439 33.975616c21.754211 21.75422 33.9756 51.25927 33.9756 82.02438l0 0c0 64.06503 -51.934967 116.0 -115.99999 116.0l0 0c-64.06503 0 -116.0 -51.934967 -116.0 -116.0zm17.98928 0l0 0c0 54.12982 43.88089 98.01073 98.01072 98.01073c54.12983 0 98.01072 -43.880905 98.01072 -98.01073l0 0c0 -54.129826 -43.88089 -98.01072 -98.01072 -98.01072l0 0c-54.12983 0 -98.01072 43.88089 -98.01072 98.01072z" fill-rule="evenodd"/><path stroke="#000000" stroke-width="1.0" stroke-linejoin="round" stroke-linecap="butt" d="m4.3622046 118.02887l0 0c0 -64.06503 51.934967 -116.0 116.0 -116.0l0 0c30.765114 0 60.270164 12.221394 82.02439 33.975616c21.754211 21.75422 33.9756 51.25927 33.9756 82.02438l0 0c0 64.06503 -51.934967 116.0 -115.99999 116.0l0 0c-64.06503 0 -116.0 -51.934967 -116.0 -116.0zm17.98928 0l0 0c0 54.12982 43.88089 98.01073 98.01072 98.01073c54.12983 0 98.01072 -43.880905 98.01072 -98.01073l0 0c0 -54.129826 -43.88089 -98.01072 -98.01072 -98.01072l0 0c-54.12983 0 -98.01072 43.88089 -98.01072 98.01072z" fill-rule="evenodd"/><path fill="#000000" d="m220.54622 205.86334l104.93016 104.930145l0 0c13.746124 13.746124 21.247192 28.531921 16.75412 33.024994c-4.4930725 4.493103 -19.27887 -3.0079956 -33.024994 -16.75412l-104.930145 -104.930145l0 0c-13.74614 -13.74614 -21.247223 -28.531937 -16.75415 -33.02501c4.4930725 -4.4930725 19.278885 3.0080109 33.02501 16.754135z" fill-rule="evenodd"/><path stroke="#000000" stroke-width="1.0" stroke-linejoin="round" stroke-linecap="butt" d="m220.54622 205.86334l104.93016 104.930145l0 0c13.746124 13.746124 21.247192 28.531921 16.75412 33.024994c-4.4930725 4.493103 -19.27887 -3.0079956 -33.024994 -16.75412l-104.930145 -104.930145l0 0c-13.74614 -13.74614 -21.247223 -28.531937 -16.75415 -33.02501c4.4930725 -4.4930725 19.278885 3.0080109 33.02501 16.754135z" fill-rule="evenodd"/><path fill="#000000" fill-opacity="0.0" d="m67.30134 78.36756l0 0c7.8938446 -13.653427 20.888184 -23.611828 36.124405 -27.684471c15.236221 -4.0726395 31.466255 -1.9259071 45.119698 5.9679375l-29.763786 51.480312z" fill-rule="evenodd"/><path fill="#000000" fill-opacity="0.0" d="m67.30134 78.36756l0 0c7.8938446 -13.653427 20.888184 -23.611828 36.124405 -27.684471c15.236221 -4.0726395 31.466255 -1.9259071 45.119698 5.9679375" fill-rule="evenodd"/><path stroke="#000000" stroke-width="8.0" stroke-linejoin="round" stroke-linecap="butt" d="m67.30134 78.36756l0 0c7.8938446 -13.653427 20.888184 -23.611828 36.124405 -27.684471c15.236221 -4.0726395 31.466255 -1.9259071 45.119698 5.9679375" fill-rule="evenodd"/><path fill="#000000" d="m140.99785 51.877476l0 0c1.0610809 -1.6785965 4.9882812 -1.0722427 8.771652 1.354332l0 0c3.783371 2.4265747 5.990219 5.754471 4.929138 7.433071l0 0c-1.0610809 1.6785965 -4.9882965 1.0722427 -8.771652 -1.354332l0 0c-3.783371 -2.4265747 -5.990219 -5.7544746 -4.929138 -7.433071z" fill-rule="evenodd"/><path stroke="#000000" stroke-width="1.0" stroke-linejoin="round" stroke-linecap="butt" d="m140.99785 51.877476l0 0c1.0610809 -1.6785965 4.9882812 -1.0722427 8.771652 1.354332l0 0c3.783371 2.4265747 5.990219 5.754471 4.929138 7.433071l0 0c-1.0610809 1.6785965 -4.9882965 1.0722427 -8.771652 -1.354332l0 0c-3.783371 -2.4265747 -5.990219 -5.7544746 -4.929138 -7.433071z" fill-rule="evenodd"/><path fill="#000000" d="m62.564392 86.10202l0 0c-1.6872978 -1.0436859 -1.1161957 -4.9779434 1.275589 -8.787407l0 0c2.3917847 -3.8094559 5.698532 -6.0515594 7.385826 -5.0078735l0 0c1.687294 1.0436935 1.1161957 4.9779434 -1.275589 8.787407l0 0c-2.3917847 3.8094559 -5.698532 6.0515594 -7.385826 5.0078735z" fill-rule="evenodd"/><path stroke="#000000" stroke-width="1.0" stroke-linejoin="round" stroke-linecap="butt" d="m62.564392 86.10202l0 0c-1.6872978 -1.0436859 -1.1161957 -4.9779434 1.275589 -8.787407l0 0c2.3917847 -3.8094559 5.698532 -6.0515594 7.385826 -5.0078735l0 0c1.687294 1.0436935 1.1161957 4.9779434 -1.275589 8.787407l0 0c-2.3917847 3.8094559 -5.698532 6.0515594 -7.385826 5.0078735z" fill-rule="evenodd"/></g></svg>